<svg xmlns="http://www.w3.org/2000/svg" viewBox="97.12 184.51 832.49 451.22">
<g>
<path d="M 390.50 634.66 C378.61,630.71 366.38,619.86 359.76,607.36 C357.71,603.48 344.14,567.05 329.61,526.40 C267.54,352.74 258.59,327.89 254.04,316.50 C246.28,297.03 242.06,287.07 237.40,277.17 C234.98,272.04 233.00,267.62 233.00,267.36 C233.00,266.26 224.97,255.27 222.35,252.80 C215.95,246.75 203.90,243.90 197.90,247.01 C192.34,249.91 186.76,255.57 182.82,262.31 C176.62,272.92 166.05,282.88 155.36,288.19 L 146.66 292.50 L 127.58 292.83 C111.57,293.10 108.02,292.89 105.50,291.55 C98.50,287.82 94.97,276.89 98.51,269.92 C102.38,262.29 105.41,260.55 117.59,258.95 C122.49,258.31 128.05,257.14 129.95,256.36 C138.38,252.88 144.77,245.05 148.99,233.00 C152.84,222.02 159.69,208.75 164.17,203.59 C187.51,176.69 226.64,178.49 246.24,207.35 C252.39,216.42 261.48,236.17 266.09,250.50 C268.39,257.65 281.94,296.12 296.21,336.00 C310.48,375.88 330.03,430.55 339.66,457.50 C349.29,484.45 358.72,509.31 360.62,512.74 C364.92,520.47 373.88,530.30 380.50,534.52 C388.33,539.51 395.03,541.32 403.60,540.78 C414.08,540.10 421.72,536.13 430.67,526.71 C441.52,515.29 441.25,515.88 458.69,465.00 C465.00,446.58 472.88,423.62 476.19,414.00 C479.50,404.38 486.16,384.55 490.99,369.95 C506.09,324.31 517.16,306.96 537.66,296.81 C545.67,292.84 546.67,292.59 554.83,292.58 C560.70,292.57 565.28,293.17 569.00,294.43 C580.37,298.29 591.43,307.41 599.03,319.18 C604.03,326.91 607.42,328.90 615.68,328.96 C629.42,329.05 630.12,328.14 640.62,296.61 C645.40,282.25 651.11,266.98 653.30,262.67 C665.50,238.73 688.15,228.91 708.30,238.82 C719.61,244.39 729.12,256.59 733.39,271.00 C734.28,274.02 737.50,288.42 740.55,303.00 C743.59,317.58 746.80,331.42 747.69,333.77 C749.82,339.47 756.02,346.35 761.33,348.92 C769.68,352.96 779.46,350.79 785.88,343.48 C790.25,338.50 790.46,337.97 799.51,308.00 C803.75,293.98 808.89,278.90 810.93,274.50 C815.52,264.61 822.02,257.84 831.00,253.58 C836.98,250.75 838.34,250.50 848.02,250.50 C857.99,250.50 858.92,250.68 865.52,253.93 C873.85,258.02 881.45,265.50 885.31,273.39 C890.01,282.98 897.29,286.88 910.60,286.96 C919.47,287.00 923.19,288.63 927.41,294.32 C930.34,298.29 930.34,307.71 927.41,311.68 C922.15,318.78 915.13,320.58 895.77,319.83 C880.64,319.24 872.53,315.05 863.88,303.34 C861.69,300.37 858.21,297.12 856.01,296.01 C851.86,293.89 844.77,293.38 840.76,294.90 C838.03,295.94 833.05,303.01 831.92,307.46 C831.50,309.13 827.04,323.77 822.02,340.00 C817.00,356.23 811.30,374.90 809.34,381.50 C804.42,398.12 801.82,402.98 793.90,410.45 C785.11,418.74 778.77,421.30 767.00,421.30 C755.95,421.30 749.04,418.72 741.38,411.72 C730.63,401.89 729.31,398.50 720.91,359.11 C714.33,328.23 711.13,318.30 705.05,309.82 C695.46,296.42 683.67,295.45 673.52,307.22 C668.04,313.56 664.85,320.57 658.59,340.00 C652.45,359.05 649.06,365.36 641.75,371.35 C633.87,377.81 628.83,379.50 617.50,379.50 C608.46,379.50 606.93,379.22 601.51,376.56 C594.31,373.03 587.56,366.49 583.32,358.94 C577.36,348.33 569.74,343.64 558.66,343.75 C550.19,343.83 541.68,347.67 535.15,354.34 C531.45,358.12 529.91,361.14 524.81,374.64 C517.27,394.59 516.63,396.44 467.02,541.50 C456.67,571.75 447.04,599.14 445.61,602.37 C439.71,615.67 429.25,627.03 418.02,632.34 C412.65,634.88 410.07,635.46 403.02,635.69 C397.85,635.87 392.93,635.46 390.50,634.66 Z" fill="rgba(0,0,0,1)"/>
</g>
</svg>